<svg width="240" height="74" viewBox="0 0 240 74" fill="none" xmlns="http://www.w3.org/2000/svg">
<g clip-path="url(#clip0_231_532)">
<path fill-rule="evenodd" clip-rule="evenodd" d="M23.062 36.75L35.5657 9.23717H13.3013L23.062 36.75Z" fill="#0062B1"/>
<path fill-rule="evenodd" clip-rule="evenodd" d="M45.3618 36.75L57.8654 9.23717H35.5654L45.3618 36.75Z" fill="#1D2088"/>
<path fill-rule="evenodd" clip-rule="evenodd" d="M35.5652 9.23717L23.0615 36.75H45.3615L35.5652 9.23717Z" fill="#003D96"/>
<path fill-rule="evenodd" clip-rule="evenodd" d="M13.301 9.23717L0.797363 36.75H23.0618L13.301 9.23717Z" fill="#00A0E9"/>
<path fill-rule="evenodd" clip-rule="evenodd" d="M23.0618 36.75L10.5581 64.2628H32.8581L23.0618 36.75Z" fill="#0088D2"/>
<path fill-rule="evenodd" clip-rule="evenodd" d="M32.8579 64.2628L45.3615 36.75H23.0615L32.8579 64.2628Z" fill="#0062B1"/>
</g>
<path d="M72.82 30.36V25.9H74.48V24.18H72.82V20.2H74.92V18.5H68.86V20.2H71.1V24.18H69.14V25.9H71.1V30.94C70.22 31.24 69.4 31.48 68.72 31.68L69.16 33.42C70.86 32.86 73 32.12 75.02 31.4L74.72 29.72L72.82 30.36ZM86.96 28.56C86.12 27.18 84.32 24.96 82.9 23.36L81.72 24.18V22.56C82.08 21.78 82.4 20.98 82.7 20.18H86.9V18.42H75.82V20.18H80.66C79.4 23.54 77.42 26.6 75.04 28.52C75.46 28.88 76.2 29.62 76.5 30C77.72 28.9 78.86 27.5 79.88 25.92V35.52H81.72V24.6C83.1 26.26 84.68 28.36 85.4 29.72L86.96 28.56ZM106.32 19.44C105.82 18.84 104.78 17.98 103.92 17.4L102.88 18.36C103.72 18.98 104.72 19.9 105.2 20.54L106.32 19.44ZM105.32 23.26C104.72 24.3 103.78 25.6 102.92 26.66C102.58 25.62 102.3 24.46 102.08 23.1V22.28H107.14V20.56H102.08V17.24H100.28V20.56H95.54V22.28H100.28V27.3C98.58 28.76 96.76 30.3 95.44 31.36L95.2 29.88L92.92 30.58V25.9H94.8V24.18H92.92V20.2H95.1V18.48H88.92V20.2H91.2V24.18H89.06V25.9H91.2V31.1C90.26 31.38 89.38 31.64 88.68 31.82L89.08 33.6C90.76 33.08 92.92 32.4 94.98 31.72L94.7 31.94L95.84 33.56C97.16 32.36 98.74 30.86 100.28 29.32V33.4C100.28 33.72 100.16 33.82 99.84 33.84C99.54 33.84 98.58 33.86 97.5 33.82C97.74 34.3 98.06 35.12 98.14 35.6C99.68 35.6 100.62 35.54 101.24 35.22C101.84 34.92 102.08 34.4 102.08 33.4V28.94C103.02 31.04 104.36 32.66 106.32 34.14C106.52 33.62 107.04 33.04 107.46 32.7C105.66 31.44 104.44 30.06 103.56 28.22C104.6 27.14 105.88 25.5 106.94 24.1L105.32 23.26ZM95.76 24.02C96.58 25.16 97.44 26.68 97.74 27.68L99.28 26.94C98.94 25.96 98.04 24.48 97.2 23.38L95.76 24.02ZM118.06 19.26H114.82C114.58 18.62 114.18 17.78 113.84 17.14L112.2 17.56C112.44 18.06 112.7 18.7 112.92 19.26H109.26V20.8H118.06V19.26ZM110.58 29.32C110.22 30.52 109.56 31.7 108.8 32.52C109.16 32.74 109.76 33.16 110.04 33.42C110.82 32.5 111.6 31.08 112.08 29.72L110.58 29.32ZM118.1 28.68V27.1H114.56V25.28H118.38V23.72H116.04C116.36 22.98 116.72 22.06 117.06 21.18L115.34 20.82C115.12 21.66 114.72 22.88 114.36 23.72H111.6L112.72 23.42C112.62 22.72 112.3 21.62 111.92 20.84L110.42 21.22C110.78 22 111.04 23.02 111.14 23.72H108.94V25.28H112.88V27.1H109.06V28.68H112.88V33.4C112.88 33.6 112.84 33.66 112.62 33.66C112.4 33.66 111.8 33.66 111.16 33.64C111.38 34.08 111.6 34.76 111.66 35.2C112.68 35.2 113.38 35.16 113.92 34.9C114.42 34.66 114.56 34.22 114.56 33.42V28.68H118.1ZM115.16 29.88C115.76 30.84 116.44 32.16 116.76 33L118.06 32.22C117.74 31.4 117.06 30.16 116.4 29.22L115.16 29.88ZM127.14 23.86H120.74V20.36C122.78 20 124.94 19.52 126.6 18.88L125.12 17.52C123.7 18.14 121.22 18.76 119 19.14V26C119 28.58 118.86 31.92 117.28 34.26C117.66 34.46 118.42 35.02 118.7 35.36C120.48 32.84 120.74 28.86 120.74 26V25.58H123.3V35.5H125.12V25.58H127.14V23.86ZM137.42 27.14C136.96 26.6 135.04 24.46 134.26 23.7V23.18H136.88V21.4H134.26V17.22H132.38V21.4H129.18V23.18H132.14C131.4 25.78 130 28.66 128.56 30.3C128.88 30.78 129.34 31.56 129.54 32.1C130.6 30.86 131.6 28.9 132.38 26.8V35.58H134.26V25.88C135.02 26.86 135.86 28.04 136.28 28.74L137.42 27.14ZM147.14 21.4H145.16V17.24H143.2V21.4H137.54V23.18H142.62C141.14 26.22 138.62 29.38 136.16 31.02C136.62 31.38 137.18 32.06 137.5 32.52C139.56 30.96 141.66 28.42 143.2 25.78V33.18C143.2 33.54 143.06 33.66 142.7 33.66C142.34 33.68 141.08 33.68 139.88 33.64C140.14 34.16 140.44 35.02 140.54 35.54C142.24 35.54 143.44 35.5 144.16 35.18C144.88 34.88 145.16 34.36 145.16 33.18V23.18H147.14V21.4ZM161.56 29.8L162.78 29.06C162.4 28.5 161.6 27.6 160.92 26.98L159.74 27.62C160.4 28.28 161.16 29.18 161.52 29.8H158.76V26.84H162.5V25.26H158.76V22.84H162.94V21.2H152.96V22.84H157.02V25.26H153.48V26.84H157.02V29.8H152.68V31.34H163.34V29.8H161.56ZM151.6 32.88V19.8H164.28V32.88H151.6ZM149.72 18.08V35.58H151.6V34.6H164.28V35.58H166.26V18.08H149.72ZM185.94 18.62H177.28V20.36H185.94V18.62ZM174.8 17.98L174.52 18.06H169.64V35.58H171.42V19.74H173.84C173.46 21.06 172.92 22.72 172.42 24.04C173.76 25.54 174.08 26.86 174.08 27.9C174.08 28.5 173.98 29 173.7 29.2C173.54 29.32 173.32 29.36 173.08 29.36C172.78 29.4 172.44 29.38 172 29.34C172.3 29.8 172.46 30.52 172.48 30.96C172.96 30.98 173.48 30.98 173.86 30.92C174.3 30.86 174.68 30.74 175 30.54C175.62 30.1 175.88 29.24 175.88 28.08C175.88 26.88 175.56 25.46 174.18 23.84C174.82 22.28 175.54 20.32 176.14 18.68L174.8 17.98ZM177.56 27.12C177.06 29.2 176.2 31.36 175.14 32.74C175.52 32.96 176.28 33.44 176.6 33.72C177.64 32.18 178.66 29.8 179.24 27.52L177.56 27.12ZM187.02 25.08V23.34H176.4V25.08H180.48V33.32C180.48 33.58 180.4 33.64 180.14 33.64C179.88 33.66 178.96 33.66 178.04 33.64C178.3 34.18 178.54 35 178.6 35.56C179.98 35.56 180.92 35.52 181.56 35.2C182.2 34.9 182.38 34.32 182.38 33.34V25.08H187.02ZM183.42 27.58C184.32 29.58 185.18 32.18 185.46 33.78L187.14 33.14C186.84 31.56 185.9 29.02 184.98 27.06L183.42 27.58Z" fill="white"/>
<path d="M71.6036 59.156C73.3316 59.156 74.4596 57.62 74.4596 54.548C74.4596 51.5 73.3316 50 71.6036 50C69.8636 50 68.7476 51.488 68.7476 54.548C68.7476 57.62 69.8636 59.156 71.6036 59.156ZM71.6036 58.064C70.7036 58.064 70.0676 57.104 70.0676 54.548C70.0676 52.016 70.7036 51.092 71.6036 51.092C72.5036 51.092 73.1396 52.016 73.1396 54.548C73.1396 57.104 72.5036 58.064 71.6036 58.064ZM78.6993 58.1C77.7513 58.1 77.1153 57.272 76.9713 55.52C77.4993 54.764 78.0993 54.488 78.6153 54.488C79.5633 54.488 80.0673 55.124 80.0673 56.264C80.0673 57.404 79.4673 58.1 78.6993 58.1ZM81.2073 50.948C80.7033 50.42 79.9833 50 78.9993 50C77.2593 50 75.6633 51.356 75.6633 54.752C75.6633 57.752 77.0313 59.156 78.7113 59.156C80.1513 59.156 81.3513 58.016 81.3513 56.264C81.3513 54.392 80.3553 53.48 78.8673 53.48C78.2313 53.48 77.4633 53.864 76.9473 54.5C77.0073 51.98 77.9433 51.128 79.0713 51.128C79.5873 51.128 80.1273 51.404 80.4513 51.788L81.2073 50.948ZM85.5431 58.1C84.5951 58.1 83.9591 57.272 83.8151 55.52C84.3431 54.764 84.9431 54.488 85.4591 54.488C86.4071 54.488 86.9111 55.124 86.9111 56.264C86.9111 57.404 86.3111 58.1 85.5431 58.1ZM88.0511 50.948C87.5471 50.42 86.8271 50 85.8431 50C84.1031 50 82.5071 51.356 82.5071 54.752C82.5071 57.752 83.8751 59.156 85.5551 59.156C86.9951 59.156 88.1951 58.016 88.1951 56.264C88.1951 54.392 87.1991 53.48 85.7111 53.48C85.0751 53.48 84.3071 53.864 83.7911 54.5C83.8511 51.98 84.7871 51.128 85.9151 51.128C86.4311 51.128 86.9711 51.404 87.2951 51.788L88.0511 50.948ZM89.7468 59H94.7868V57.86H93.0588V50.168H92.0148C91.5108 50.48 90.9228 50.684 90.0948 50.84V51.716H91.6788V57.86H89.7468V59ZM99.2306 58.1C98.2826 58.1 97.6466 57.272 97.5026 55.52C98.0306 54.764 98.6306 54.488 99.1466 54.488C100.095 54.488 100.599 55.124 100.599 56.264C100.599 57.404 99.9986 58.1 99.2306 58.1ZM101.739 50.948C101.235 50.42 100.515 50 99.5306 50C97.7906 50 96.1946 51.356 96.1946 54.752C96.1946 57.752 97.5626 59.156 99.2426 59.156C100.683 59.156 101.883 58.016 101.883 56.264C101.883 54.392 100.887 53.48 99.3986 53.48C98.7626 53.48 97.9946 53.864 97.4786 54.5C97.5386 51.98 98.4746 51.128 99.6026 51.128C100.119 51.128 100.659 51.404 100.983 51.788L101.739 50.948ZM104.19 59.156C104.706 59.156 105.114 58.76 105.114 58.196C105.114 57.632 104.706 57.212 104.19 57.212C103.674 57.212 103.266 57.632 103.266 58.196C103.266 58.76 103.674 59.156 104.19 59.156ZM107.141 59H108.533V54.98H112.313V59H113.705V50.168H112.313V53.768H108.533V50.168H107.141V59ZM116.023 59H117.415V56.336L118.771 54.68L121.267 59H122.815L119.623 53.576L122.359 50.168H120.811L117.451 54.344H117.415V50.168H116.023V59Z" fill="white"/>
<defs>
<clipPath id="clip0_231_532">
<rect width="58" height="55.0256" fill="white" transform="translate(0.25 9.23718)"/>
</clipPath>
</defs>
</svg>
